<mxfile host="Electron" agent="Mozilla/5.0 (Windows NT 10.0; Win64; x64) AppleWebKit/537.36 (KHTML, like Gecko) draw.io/26.0.9 Chrome/128.0.6613.186 Electron/32.2.5 Safari/537.36" version="26.0.9">
  <diagram name="Página-1" id="CcSd7dm8wPoqx5xokxxl">
    <mxGraphModel dx="1498" dy="2688" grid="0" gridSize="10" guides="1" tooltips="1" connect="1" arrows="1" fold="1" page="0" pageScale="1" pageWidth="827" pageHeight="1169" background="light-dark(#080808, #121212)" math="0" shadow="0">
      <root>
        <mxCell id="0" />
        <mxCell id="1" parent="0" />
        <mxCell id="cpcD1UGZrVF7DgJeckZ2-15" value="" style="edgeStyle=orthogonalEdgeStyle;rounded=0;orthogonalLoop=1;jettySize=auto;html=1;" edge="1" parent="1" source="cpcD1UGZrVF7DgJeckZ2-13" target="cpcD1UGZrVF7DgJeckZ2-14">
          <mxGeometry relative="1" as="geometry" />
        </mxCell>
        <mxCell id="cpcD1UGZrVF7DgJeckZ2-23" value="" style="edgeStyle=orthogonalEdgeStyle;rounded=0;orthogonalLoop=1;jettySize=auto;html=1;strokeColor=light-dark(#f7f2f2, #ededed);" edge="1" parent="1" source="cpcD1UGZrVF7DgJeckZ2-13" target="cpcD1UGZrVF7DgJeckZ2-14">
          <mxGeometry relative="1" as="geometry" />
        </mxCell>
        <mxCell id="cpcD1UGZrVF7DgJeckZ2-13" value="SIDEBAR USUARIOS" style="rounded=1;whiteSpace=wrap;html=1;" vertex="1" parent="1">
          <mxGeometry x="549" y="-1899" width="313" height="60" as="geometry" />
        </mxCell>
        <mxCell id="cpcD1UGZrVF7DgJeckZ2-25" value="" style="edgeStyle=orthogonalEdgeStyle;rounded=0;orthogonalLoop=1;jettySize=auto;html=1;strokeColor=light-dark(#faf5f5, #ededed);" edge="1" parent="1" source="cpcD1UGZrVF7DgJeckZ2-14" target="cpcD1UGZrVF7DgJeckZ2-16">
          <mxGeometry relative="1" as="geometry" />
        </mxCell>
        <mxCell id="cpcD1UGZrVF7DgJeckZ2-14" value="Após login, front end solicita as informações do usuario para o backend" style="whiteSpace=wrap;html=1;rounded=1;" vertex="1" parent="1">
          <mxGeometry x="645.5" y="-1775" width="120" height="70" as="geometry" />
        </mxCell>
        <mxCell id="cpcD1UGZrVF7DgJeckZ2-19" value="" style="edgeStyle=orthogonalEdgeStyle;rounded=0;orthogonalLoop=1;jettySize=auto;html=1;strokeColor=#FFFFFF;" edge="1" parent="1" source="cpcD1UGZrVF7DgJeckZ2-16" target="cpcD1UGZrVF7DgJeckZ2-18">
          <mxGeometry relative="1" as="geometry" />
        </mxCell>
        <mxCell id="cpcD1UGZrVF7DgJeckZ2-16" value="backend retorna com os dados do usuario&lt;div&gt;&lt;br&gt;&lt;/div&gt;" style="whiteSpace=wrap;html=1;rounded=1;" vertex="1" parent="1">
          <mxGeometry x="645.5" y="-1650" width="120" height="60" as="geometry" />
        </mxCell>
        <mxCell id="cpcD1UGZrVF7DgJeckZ2-18" value="componente é atualizado com os dados do respectivo usuario" style="whiteSpace=wrap;html=1;rounded=1;" vertex="1" parent="1">
          <mxGeometry x="645.5" y="-1535" width="120" height="60" as="geometry" />
        </mxCell>
        <mxCell id="cpcD1UGZrVF7DgJeckZ2-20" value="&lt;h5&gt;&lt;strong data-start=&quot;141&quot; data-end=&quot;208&quot;&gt;Passo a Passo para Exibir as Informações do Usuário no Sidebar:&lt;br&gt;&lt;/strong&gt;&lt;strong data-start=&quot;215&quot; data-end=&quot;254&quot;&gt;1. Tela de Login (Frontend - Ret)&lt;/strong&gt;&lt;strong data-start=&quot;257&quot; data-end=&quot;269&quot; style=&quot;background-color: transparent;&quot;&gt;Objetivo&lt;/strong&gt;&lt;span style=&quot;background-color: transparent; font-weight: normal;&quot;&gt;: O usuário precisa informar seu &lt;/span&gt;&lt;strong data-start=&quot;302&quot; data-end=&quot;313&quot; style=&quot;background-color: transparent;&quot;&gt;usuário&lt;/strong&gt;&lt;span style=&quot;background-color: transparent; font-weight: normal;&quot;&gt; e &lt;/span&gt;&lt;strong data-start=&quot;316&quot; data-end=&quot;325&quot; style=&quot;background-color: transparent;&quot;&gt;senha&lt;/strong&gt;&lt;span style=&quot;background-color: transparent; font-weight: normal;&quot;&gt; para tentar se autenticar.&lt;/span&gt;&lt;ul data-start=&quot;255&quot; data-end=&quot;721&quot;&gt;&lt;li data-start=&quot;353&quot; data-end=&quot;721&quot;&gt;&lt;strong data-start=&quot;355&quot; data-end=&quot;364&quot;&gt;Fluxo&lt;/strong&gt;:&lt;/li&gt;&lt;/ul&gt;&lt;ol data-start=&quot;368&quot; data-end=&quot;721&quot;&gt;&lt;li data-start=&quot;368&quot; data-end=&quot;452&quot;&gt;O usuário entra na página de login e preenche suas credenciais (usuário e senha).&lt;/li&gt;&lt;/ol&gt;&lt;ol data-start=&quot;368&quot; data-end=&quot;721&quot;&gt;&lt;li data-start=&quot;455&quot; data-end=&quot;557&quot;&gt;Ao clicar no botão de &lt;strong data-start=&quot;480&quot; data-end=&quot;489&quot;&gt;login&lt;/strong&gt;, o frontend envia uma requisição para o backend com as credenciais.&lt;/li&gt;&lt;/ol&gt;&lt;ol data-start=&quot;368&quot; data-end=&quot;721&quot;&gt;&lt;li data-start=&quot;560&quot; data-end=&quot;721&quot;&gt;O backend valida as credenciais (usuário e senha) e, caso esteja correto, o backend &lt;strong data-start=&quot;647&quot; data-end=&quot;666&quot;&gt;cria uma sessão&lt;/strong&gt; para esse usuário (usando cookies ou algo semelhante).&lt;/li&gt;&lt;/ol&gt;&lt;strong data-start=&quot;728&quot; data-end=&quot;757&quot;&gt;2. Backend (Autenticação)&lt;/strong&gt;&lt;ul data-start=&quot;758&quot; data-end=&quot;1402&quot;&gt;&lt;li data-start=&quot;758&quot; data-end=&quot;888&quot;&gt;&lt;strong data-start=&quot;760&quot; data-end=&quot;772&quot;&gt;Objetivo&lt;/strong&gt;: O backend deve validar as credenciais e, caso válidas, autenticar o usuário, armazenando o estado de autenticação.&lt;/li&gt;&lt;/ul&gt;&lt;ul data-start=&quot;758&quot; data-end=&quot;1402&quot;&gt;&lt;li data-start=&quot;889&quot; data-end=&quot;1402&quot;&gt;&lt;strong data-start=&quot;891&quot; data-end=&quot;900&quot;&gt;Fluxo&lt;/strong&gt;:&lt;/li&gt;&lt;/ul&gt;&lt;ol data-start=&quot;904&quot; data-end=&quot;1402&quot;&gt;&lt;li data-start=&quot;904&quot; data-end=&quot;988&quot;&gt;O backend recebe a requisição de login do frontend com o nome de usuário e senha.&lt;/li&gt;&lt;/ol&gt;&lt;ol data-start=&quot;904&quot; data-end=&quot;1402&quot;&gt;&lt;li data-start=&quot;991&quot; data-end=&quot;1020&quot;&gt;Ele valida as credenciais.&lt;/li&gt;&lt;/ol&gt;&lt;ol data-start=&quot;904&quot; data-end=&quot;1402&quot;&gt;&lt;li data-start=&quot;1023&quot; data-end=&quot;1157&quot;&gt;Se as credenciais forem válidas, o backend cria uma &lt;strong data-start=&quot;1078&quot; data-end=&quot;1088&quot;&gt;sessão&lt;/strong&gt; no servidor para o usuário, associando a sessão com um &lt;strong data-start=&quot;1144&quot; data-end=&quot;1156&quot;&gt;ID único&lt;/strong&gt;.&lt;/li&gt;&lt;/ol&gt;&lt;ol data-start=&quot;904&quot; data-end=&quot;1402&quot;&gt;&lt;li data-start=&quot;1160&quot; data-end=&quot;1244&quot;&gt;O backend envia uma resposta positiva (ex: &quot;login bem-sucedido&quot;) para o frontend.&lt;/li&gt;&lt;/ol&gt;&lt;ol data-start=&quot;904&quot; data-end=&quot;1402&quot;&gt;&lt;li data-start=&quot;1247&quot; data-end=&quot;1402&quot;&gt;O backend também pode incluir um &lt;strong data-start=&quot;1283&quot; data-end=&quot;1303&quot;&gt;cookie de sessão&lt;/strong&gt; (geralmente automático) que permite que o servidor identifique o usuário nas próximas requisições.&lt;/li&gt;&lt;/ol&gt;&lt;strong data-start=&quot;1409&quot; data-end=&quot;1466&quot;&gt;3. Frontend (React - Requisição dos Dados do Usuário)&lt;/strong&gt;&lt;ul data-start=&quot;1467&quot; data-end=&quot;2089&quot;&gt;&lt;li data-start=&quot;1467&quot; data-end=&quot;1579&quot;&gt;&lt;strong data-start=&quot;1469&quot; data-end=&quot;1481&quot;&gt;Objetivo&lt;/strong&gt;: Após a autenticação, o frontend deve buscar as informações do usuário para exibi-las no sidebar.&lt;/li&gt;&lt;/ul&gt;&lt;ul data-start=&quot;1467&quot; data-end=&quot;2089&quot;&gt;&lt;li data-start=&quot;1580&quot; data-end=&quot;2089&quot;&gt;&lt;strong data-start=&quot;1582&quot; data-end=&quot;1591&quot;&gt;Fluxo&lt;/strong&gt;:&lt;/li&gt;&lt;/ul&gt;&lt;ol data-start=&quot;1595&quot; data-end=&quot;2089&quot;&gt;&lt;li data-start=&quot;1595&quot; data-end=&quot;1725&quot;&gt;O frontend, após o login bem-sucedido, faz uma &lt;strong data-start=&quot;1645&quot; data-end=&quot;1659&quot;&gt;requisição&lt;/strong&gt; para o backend solicitando as informações do usuário autenticado.&lt;/li&gt;&lt;/ol&gt;&lt;ol data-start=&quot;1595&quot; data-end=&quot;2089&quot;&gt;&lt;li data-start=&quot;1728&quot; data-end=&quot;1853&quot;&gt;O backend verifica a &lt;strong data-start=&quot;1752&quot; data-end=&quot;1762&quot;&gt;sessão&lt;/strong&gt; do usuário (verifica o cookie de sessão que foi enviado automaticamente com a requisição).&lt;/li&gt;&lt;/ol&gt;&lt;ol data-start=&quot;1595&quot; data-end=&quot;2089&quot;&gt;&lt;li data-start=&quot;1856&quot; data-end=&quot;1981&quot;&gt;Se a sessão estiver válida, o backend envia os dados do usuário de volta para o frontend (como nome, email, avatar, etc.).&lt;/li&gt;&lt;/ol&gt;&lt;ol data-start=&quot;1595&quot; data-end=&quot;2089&quot;&gt;&lt;li data-start=&quot;1984&quot; data-end=&quot;2089&quot;&gt;O frontend recebe esses dados e os utiliza para &lt;strong data-start=&quot;2035&quot; data-end=&quot;2058&quot;&gt;preencher o sidebar&lt;/strong&gt; com as informações do usuário.&lt;/li&gt;&lt;/ol&gt;&lt;strong data-start=&quot;2096&quot; data-end=&quot;2159&quot;&gt;4. Sidebar (Frontend - Exibição das Informações do Usuário)&lt;/strong&gt;&lt;ul data-start=&quot;2160&quot; data-end=&quot;2738&quot;&gt;&lt;li data-start=&quot;2160&quot; data-end=&quot;2252&quot;&gt;&lt;strong data-start=&quot;2162&quot; data-end=&quot;2174&quot;&gt;Objetivo&lt;/strong&gt;: Exibir as informações do usuário (nome, email, avatar, etc.) no &lt;strong data-start=&quot;2240&quot; data-end=&quot;2251&quot;&gt;sidebar&lt;/strong&gt;.&lt;/li&gt;&lt;/ul&gt;&lt;ul data-start=&quot;2160&quot; data-end=&quot;2738&quot;&gt;&lt;li data-start=&quot;2253&quot; data-end=&quot;2738&quot;&gt;&lt;strong data-start=&quot;2255&quot; data-end=&quot;2264&quot;&gt;Fluxo&lt;/strong&gt;:&lt;/li&gt;&lt;/ul&gt;&lt;ol data-start=&quot;2268&quot; data-end=&quot;2738&quot;&gt;&lt;li data-start=&quot;2268&quot; data-end=&quot;2375&quot;&gt;O frontend renderiza a &lt;strong data-start=&quot;2294&quot; data-end=&quot;2305&quot;&gt;sidebar&lt;/strong&gt; após a autenticação, usando os dados do usuário recebidos do backend.&lt;/li&gt;&lt;/ol&gt;&lt;ol data-start=&quot;2268&quot; data-end=&quot;2738&quot;&gt;&lt;li data-start=&quot;2378&quot; data-end=&quot;2563&quot;&gt;Caso os dados ainda não estejam disponíveis (por exemplo, se a requisição ao backend estiver em andamento), você pode mostrar um &lt;strong data-start=&quot;2510&quot; data-end=&quot;2539&quot;&gt;indicador de carregamento&lt;/strong&gt; (como &quot;Carregando...&quot;).&lt;/li&gt;&lt;/ol&gt;&lt;ol data-start=&quot;2268&quot; data-end=&quot;2738&quot;&gt;&lt;li data-start=&quot;2566&quot; data-end=&quot;2738&quot;&gt;Assim que os dados chegarem, a sidebar será atualizada automaticamente para mostrar o nome do usuário, a foto de perfil (se disponível), e outras informações relevantes.&lt;/li&gt;&lt;/ol&gt;&lt;strong data-start=&quot;2745&quot; data-end=&quot;2777&quot;&gt;5. Fluxo de Sessão (Backend)&lt;/strong&gt;&lt;ul data-start=&quot;2778&quot; data-end=&quot;3320&quot;&gt;&lt;li data-start=&quot;2778&quot; data-end=&quot;2868&quot;&gt;&lt;strong data-start=&quot;2780&quot; data-end=&quot;2792&quot;&gt;Objetivo&lt;/strong&gt;: Garantir que a sessão seja mantida enquanto o usuário estiver autenticado.&lt;/li&gt;&lt;/ul&gt;&lt;ul data-start=&quot;2778&quot; data-end=&quot;3320&quot;&gt;&lt;li data-start=&quot;2869&quot; data-end=&quot;3320&quot;&gt;&lt;strong data-start=&quot;2871&quot; data-end=&quot;2880&quot;&gt;Fluxo&lt;/strong&gt;:&lt;/li&gt;&lt;/ul&gt;&lt;ol data-start=&quot;2884&quot; data-end=&quot;3320&quot;&gt;&lt;li data-start=&quot;2884&quot; data-end=&quot;3036&quot;&gt;Toda vez que o frontend fizer uma nova requisição (por exemplo, ao acessar o chat ou outras páginas), o backend irá verificar o &lt;strong data-start=&quot;3015&quot; data-end=&quot;3035&quot;&gt;cookie de sessão&lt;/strong&gt;.&lt;/li&gt;&lt;/ol&gt;&lt;ol data-start=&quot;2884&quot; data-end=&quot;3320&quot;&gt;&lt;li data-start=&quot;3039&quot; data-end=&quot;3148&quot;&gt;Se o cookie de sessão for válido, o backend retorna as informações solicitadas (como os dados do usuário).&lt;/li&gt;&lt;/ol&gt;&lt;ol data-start=&quot;2884&quot; data-end=&quot;3320&quot;&gt;&lt;li data-start=&quot;3151&quot; data-end=&quot;3320&quot;&gt;Caso o cookie de sessão expire ou seja inválido, o backend pode retornar um erro de &lt;strong data-start=&quot;3238&quot; data-end=&quot;3257&quot;&gt;não autenticado&lt;/strong&gt; e o frontend pode redirecionar o usuário para a tela de login.&lt;/li&gt;&lt;/ol&gt;&lt;hr data-start=&quot;3322&quot; data-end=&quot;3325&quot;&gt;&lt;strong data-start=&quot;3331&quot; data-end=&quot;3360&quot;&gt;Resumo do Fluxo Completo:&lt;/strong&gt;&lt;ol data-start=&quot;3362&quot; data-end=&quot;3880&quot;&gt;&lt;li data-start=&quot;3362&quot; data-end=&quot;3424&quot;&gt;&lt;strong data-start=&quot;3365&quot; data-end=&quot;3374&quot;&gt;Login&lt;/strong&gt;: O usuário envia suas credenciais para o backend.&lt;/li&gt;&lt;/ol&gt;&lt;ol data-start=&quot;3362&quot; data-end=&quot;3880&quot;&gt;&lt;li data-start=&quot;3425&quot; data-end=&quot;3511&quot;&gt;&lt;strong data-start=&quot;3428&quot; data-end=&quot;3444&quot;&gt;Autenticação&lt;/strong&gt;: O backend valida as credenciais e cria uma sessão para o usuário.&lt;/li&gt;&lt;/ol&gt;&lt;ol data-start=&quot;3362&quot; data-end=&quot;3880&quot;&gt;&lt;li data-start=&quot;3512&quot; data-end=&quot;3600&quot;&gt;&lt;strong data-start=&quot;3515&quot; data-end=&quot;3531&quot;&gt;Sessão ativa&lt;/strong&gt;: O backend armazena a sessão do usuário e envia um cookie de sessão.&lt;/li&gt;&lt;/ol&gt;&lt;ol data-start=&quot;3362&quot; data-end=&quot;3880&quot;&gt;&lt;li data-start=&quot;3601&quot; data-end=&quot;3693&quot;&gt;&lt;strong data-start=&quot;3604&quot; data-end=&quot;3623&quot;&gt;Busca dos Dados&lt;/strong&gt;: O frontend faz uma requisição para buscar as informações do usuário.&lt;/li&gt;&lt;/ol&gt;&lt;ol data-start=&quot;3362&quot; data-end=&quot;3880&quot;&gt;&lt;li data-start=&quot;3694&quot; data-end=&quot;3796&quot;&gt;&lt;strong data-start=&quot;3697&quot; data-end=&quot;3720&quot;&gt;Exibição no Sidebar&lt;/strong&gt;: O frontend exibe as informações do usuário no sidebar, como nome e avatar.&lt;/li&gt;&lt;/ol&gt;&lt;ol data-start=&quot;3362&quot; data-end=&quot;3880&quot;&gt;&lt;li data-start=&quot;3797&quot; data-end=&quot;3880&quot;&gt;&lt;strong data-start=&quot;3800&quot; data-end=&quot;3819&quot;&gt;Sessão contínua&lt;/strong&gt;: A sessão permanece ativa enquanto o usuário estiver logado.&lt;/li&gt;&lt;/ol&gt;Esse fluxo pode ser implementado sem usar JWT, aproveitando apenas a sessão e cookies para controlar o estado de autenticação.&lt;br&gt;&lt;span class=&quot;overflow-hidden text-clip whitespace-nowrap text-sm&quot;&gt;4o mini&lt;/span&gt;&lt;/h5&gt;&lt;h1 style=&quot;margin-top: 0px;&quot;&gt;&lt;div class=&quot;mb-2 flex gap-3 empty:hidden -ml-2&quot;&gt;&lt;div class=&quot;items-center justify-start rounded-xl p-1 flex&quot;&gt;&lt;div class=&quot;flex items-center&quot;&gt;&lt;span class=&quot;&quot; data-state=&quot;closed&quot;&gt;&lt;button class=&quot;rounded-lg text-token-text-secondary hover:bg-token-main-surface-secondary&quot; aria-label=&quot;Copy&quot; data-testid=&quot;copy-turn-action-button&quot;&gt;&lt;span class=&quot;flex h-[30px] w-[30px] items-center justify-center&quot;&gt;&lt;svg width=&quot;24&quot; height=&quot;24&quot; viewBox=&quot;0 0 24 24&quot; fill=&quot;none&quot; xmlns=&quot;http://www.w3.org/2000/svg&quot; class=&quot;icon-md-heavy&quot;&gt;&lt;path fill-rule=&quot;evenodd&quot; clip-rule=&quot;evenodd&quot; d=&quot;M7 5C7 3.34315 8.34315 2 10 2H19C20.6569 2 22 3.34315 22 5V14C22 15.6569 20.6569 17 19 17H17V19C17 20.6569 15.6569 22 14 22H5C3.34315 22 2 20.6569 2 19V10C2 8.34315 3.34315 7 5 7H7V5ZM9 7H14C15.6569 7 17 8.34315 17 10V15H19C19.5523 15 20 14.5523 20 14V5C20 4.44772 19.5523 4 19 4H10C9.44772 4 9 4.44772 9 5V7ZM5 9C4.44772 9 4 9.44772 4 10V19C4 19.5523 4.44772 20 5 20H14C14.5523 20 15 19.5523 15 19V10C15 9.44772 14.5523 9 14 9H5Z&quot; fill=&quot;currentColor&quot;&gt;&lt;/path&gt;&lt;/svg&gt;&lt;/span&gt;&lt;/button&gt;&lt;/span&gt;&lt;div class=&quot;flex&quot;&gt;&lt;span class=&quot;&quot; data-state=&quot;closed&quot;&gt;&lt;button class=&quot;rounded-lg text-token-text-secondary hover:bg-token-main-surface-secondary&quot; aria-label=&quot;Good response&quot; data-testid=&quot;good-response-turn-action-button&quot;&gt;&lt;span class=&quot;flex h-[30px] w-[30px] items-center justify-center&quot;&gt;&lt;svg width=&quot;24&quot; height=&quot;24&quot; viewBox=&quot;0 0 24 24&quot; fill=&quot;none&quot; xmlns=&quot;http://www.w3.org/2000/svg&quot; class=&quot;icon-md-heavy&quot;&gt;&lt;path fill-rule=&quot;evenodd&quot; clip-rule=&quot;evenodd&quot; d=&quot;M12.1318 2.50389C12.3321 2.15338 12.7235 1.95768 13.124 2.00775L13.5778 2.06447C16.0449 2.37286 17.636 4.83353 16.9048 7.20993L16.354 8.99999H17.0722C19.7097 8.99999 21.6253 11.5079 20.9313 14.0525L19.5677 19.0525C19.0931 20.7927 17.5124 22 15.7086 22H6C4.34315 22 3 20.6568 3 19V12C3 10.3431 4.34315 8.99999 6 8.99999H8C8.25952 8.99999 8.49914 8.86094 8.6279 8.63561L12.1318 2.50389ZM10 20H15.7086C16.6105 20 17.4008 19.3964 17.6381 18.5262L19.0018 13.5262C19.3488 12.2539 18.391 11 17.0722 11H15C14.6827 11 14.3841 10.8494 14.1956 10.5941C14.0071 10.3388 13.9509 10.0092 14.0442 9.70591L14.9932 6.62175C15.3384 5.49984 14.6484 4.34036 13.5319 4.08468L10.3644 9.62789C10.0522 10.1742 9.56691 10.5859 9 10.8098V19C9 19.5523 9.44772 20 10 20ZM7 11V19C7 19.3506 7.06015 19.6872 7.17071 20H6C5.44772 20 5 19.5523 5 19V12C5 11.4477 5.44772 11 6 11H7Z&quot; fill=&quot;currentColor&quot;&gt;&lt;/path&gt;&lt;/svg&gt;&lt;/span&gt;&lt;/button&gt;&lt;/span&gt;&lt;span class=&quot;&quot; data-state=&quot;closed&quot;&gt;&lt;button class=&quot;rounded-lg text-token-text-secondary hover:bg-token-main-surface-secondary&quot; aria-label=&quot;Bad response&quot; data-testid=&quot;bad-response-turn-action-button&quot;&gt;&lt;span class=&quot;flex h-[30px] w-[30px] items-center justify-center&quot;&gt;&lt;svg width=&quot;24&quot; height=&quot;24&quot; viewBox=&quot;0 0 24 24&quot; fill=&quot;none&quot; xmlns=&quot;http://www.w3.org/2000/svg&quot; class=&quot;icon-md-heavy&quot;&gt;&lt;path fill-rule=&quot;evenodd&quot; clip-rule=&quot;evenodd&quot; d=&quot;M11.8727 21.4961C11.6725 21.8466 11.2811 22.0423 10.8805 21.9922L10.4267 21.9355C7.95958 21.6271 6.36855 19.1665 7.09975 16.7901L7.65054 15H6.93226C4.29476 15 2.37923 12.4921 3.0732 9.94753L4.43684 4.94753C4.91145 3.20728 6.49209 2 8.29589 2H18.0045C19.6614 2 21.0045 3.34315 21.0045 5V12C21.0045 13.6569 19.6614 15 18.0045 15H16.0045C15.745 15 15.5054 15.1391 15.3766 15.3644L11.8727 21.4961ZM14.0045 4H8.29589C7.39399 4 6.60367 4.60364 6.36637 5.47376L5.00273 10.4738C4.65574 11.746 5.61351 13 6.93226 13H9.00451C9.32185 13 9.62036 13.1506 9.8089 13.4059C9.99743 13.6612 10.0536 13.9908 9.96028 14.2941L9.01131 17.3782C8.6661 18.5002 9.35608 19.6596 10.4726 19.9153L13.6401 14.3721C13.9523 13.8258 14.4376 13.4141 15.0045 13.1902V5C15.0045 4.44772 14.5568 4 14.0045 4ZM17.0045 13V5C17.0045 4.64937 16.9444 4.31278 16.8338 4H18.0045C18.5568 4 19.0045 4.44772 19.0045 5V12C19.0045 12.5523 18.5568 13 18.0045 13H17.0045Z&quot; fill=&quot;currentColor&quot;&gt;&lt;/path&gt;&lt;/svg&gt;&lt;/span&gt;&lt;/button&gt;&lt;/span&gt;&lt;/div&gt;&lt;span class=&quot;&quot; data-state=&quot;closed&quot;&gt;&lt;button class=&quot;rounded-lg text-token-text-secondary hover:bg-token-main-surface-secondary&quot; aria-label=&quot;Read aloud&quot; data-testid=&quot;voice-play-turn-action-button&quot;&gt;&lt;span class=&quot;flex h-[30px] w-[30px] items-center justify-center&quot;&gt;&lt;svg width=&quot;24&quot; height=&quot;24&quot; viewBox=&quot;0 0 24 24&quot; fill=&quot;none&quot; xmlns=&quot;http://www.w3.org/2000/svg&quot; class=&quot;icon-md-heavy&quot;&gt;&lt;path fill-rule=&quot;evenodd&quot; clip-rule=&quot;evenodd&quot; d=&quot;M11 4.9099C11 4.47485 10.4828 4.24734 10.1621 4.54132L6.67572 7.7372C6.49129 7.90626 6.25019 8.00005 6 8.00005H4C3.44772 8.00005 3 8.44776 3 9.00005V15C3 15.5523 3.44772 16 4 16H6C6.25019 16 6.49129 16.0938 6.67572 16.2629L10.1621 19.4588C10.4828 19.7527 11 19.5252 11 19.0902V4.9099ZM8.81069 3.06701C10.4142 1.59714 13 2.73463 13 4.9099V19.0902C13 21.2655 10.4142 22.403 8.81069 20.9331L5.61102 18H4C2.34315 18 1 16.6569 1 15V9.00005C1 7.34319 2.34315 6.00005 4 6.00005H5.61102L8.81069 3.06701ZM20.3166 6.35665C20.8019 6.09313 21.409 6.27296 21.6725 6.75833C22.5191 8.3176 22.9996 10.1042 22.9996 12.0001C22.9996 13.8507 22.5418 15.5974 21.7323 17.1302C21.4744 17.6185 20.8695 17.8054 20.3811 17.5475C19.8927 17.2896 19.7059 16.6846 19.9638 16.1962C20.6249 14.9444 20.9996 13.5175 20.9996 12.0001C20.9996 10.4458 20.6064 8.98627 19.9149 7.71262C19.6514 7.22726 19.8312 6.62017 20.3166 6.35665ZM15.7994 7.90049C16.241 7.5688 16.8679 7.65789 17.1995 8.09947C18.0156 9.18593 18.4996 10.5379 18.4996 12.0001C18.4996 13.3127 18.1094 14.5372 17.4385 15.5604C17.1357 16.0222 16.5158 16.1511 16.0539 15.8483C15.5921 15.5455 15.4632 14.9255 15.766 14.4637C16.2298 13.7564 16.4996 12.9113 16.4996 12.0001C16.4996 10.9859 16.1653 10.0526 15.6004 9.30063C15.2687 8.85905 15.3578 8.23218 15.7994 7.90049Z&quot; fill=&quot;currentColor&quot;&gt;&lt;/path&gt;&lt;/svg&gt;&lt;/span&gt;&lt;/button&gt;&lt;/span&gt;&lt;span class=&quot;&quot; data-state=&quot;closed&quot;&gt;&lt;button class=&quot;rounded-lg text-token-text-secondary hover:bg-token-main-surface-secondary&quot; aria-label=&quot;Edit in canvas&quot;&gt;&lt;span class=&quot;flex h-[30px] w-[30px] items-center justify-center&quot;&gt;&lt;svg width=&quot;24&quot; height=&quot;24&quot; viewBox=&quot;0 0 24 24&quot; fill=&quot;none&quot; xmlns=&quot;http://www.w3.org/2000/svg&quot; class=&quot;icon-md-heavy&quot;&gt;&lt;path d=&quot;M2.5 5.5C4.3 5.2 5.2 4 5.5 2.5C5.8 4 6.7 5.2 8.5 5.5C6.7 5.8 5.8 7 5.5 8.5C5.2 7 4.3 5.8 2.5 5.5Z&quot; fill=&quot;currentColor&quot; stroke=&quot;currentColor&quot; stroke-linecap=&quot;round&quot; stroke-linejoin=&quot;round&quot;&gt;&lt;/path&gt;&lt;path d=&quot;M5.66282 16.5231L5.18413 19.3952C5.12203 19.7678 5.09098 19.9541 5.14876 20.0888C5.19933 20.2067 5.29328 20.3007 5.41118 20.3512C5.54589 20.409 5.73218 20.378 6.10476 20.3159L8.97693 19.8372C9.72813 19.712 10.1037 19.6494 10.4542 19.521C10.7652 19.407 11.0608 19.2549 11.3343 19.068C11.6425 18.8575 11.9118 18.5882 12.4503 18.0497L20 10.5C21.3807 9.11929 21.3807 6.88071 20 5.5C18.6193 4.11929 16.3807 4.11929 15 5.5L7.45026 13.0497C6.91175 13.5882 6.6425 13.8575 6.43197 14.1657C6.24513 14.4392 6.09299 14.7348 5.97903 15.0458C5.85062 15.3963 5.78802 15.7719 5.66282 16.5231Z&quot; stroke=&quot;currentColor&quot; stroke-width=&quot;2&quot; stroke-linecap=&quot;round&quot; stroke-linejoin=&quot;round&quot;&gt;&lt;/path&gt;&lt;path d=&quot;M14.5 7L18.5 11&quot; stroke=&quot;currentColor&quot; stroke-width=&quot;2&quot; stroke-linecap=&quot;round&quot; stroke-linejoin=&quot;round&quot;&gt;&lt;/path&gt;&lt;/svg&gt;&lt;/span&gt;&lt;/button&gt;&lt;/span&gt;&lt;span class=&quot;hidden&quot;&gt;&lt;/span&gt;&lt;/div&gt;&lt;/div&gt;&lt;/div&gt;&lt;/h1&gt;" style="text;html=1;whiteSpace=wrap;overflow=hidden;rounded=0;fontColor=#FFFFFF;" vertex="1" parent="1">
          <mxGeometry x="-198" y="-1922" width="660" height="1310" as="geometry" />
        </mxCell>
      </root>
    </mxGraphModel>
  </diagram>
</mxfile>
